<svg id="Grupo_2426" data-name="Grupo 2426" xmlns="http://www.w3.org/2000/svg" width="780" height="800" viewBox="0 0 780 800">
  <rect id="Fondo_Form" width="780" height="800" fill="#e8eaed" opacity="0.222"/>
  <g id="Layer_2" data-name="Layer 2" transform="translate(140.907 189.652)">
    <g id="Background" transform="translate(44.371)" opacity="0.045">
      <ellipse id="Elipse_44" data-name="Elipse 44" cx="210.349" cy="210.349" rx="210.349" ry="210.349" fill="#63adfb"/>
    </g>
    <g id="Middle_ground" data-name="Middle ground" transform="translate(19.608 20.409)">
      <rect id="Rectángulo_2120" data-name="Rectángulo 2120" width="128.985" height="199.737" transform="translate(222.867 98.236)" fill="#fff"/>
      <line id="Línea_121" data-name="Línea 121" x2="132.251" transform="translate(197.015 220.146)" fill="none" stroke="#000" stroke-miterlimit="10" stroke-width="1"/>
      <line id="Línea_122" data-name="Línea 122" x2="132.251" transform="translate(197.015 233.208)" fill="none" stroke="#000" stroke-miterlimit="10" stroke-width="1"/>
      <line id="Línea_123" data-name="Línea 123" x2="132.251" transform="translate(197.015 246.269)" fill="none" stroke="#000" stroke-miterlimit="10" stroke-width="1"/>
      <line id="Línea_124" data-name="Línea 124" x2="132.251" transform="translate(197.015 259.331)" fill="none" stroke="#000" stroke-miterlimit="10" stroke-width="1"/>
      <circle id="Elipse_45" data-name="Elipse 45" cx="33.743" cy="33.743" r="33.743" transform="translate(253.617 122.726)" fill="#f2f2f2"/>
      <rect id="Rectángulo_2121" data-name="Rectángulo 2121" width="53.336" height="49.526" transform="translate(329.266 169.259)" fill="#50b89d" opacity="0.7"/>
      <text id="_" data-name="&lt; / &gt;" transform="translate(342.938 200.98)" fill="#fff" font-size="13" font-family="ArialMT, Arial"><tspan x="0" y="0">&lt; / &gt;</tspan></text>
      <rect id="Rectángulo_2122" data-name="Rectángulo 2122" width="287.904" height="189.396" fill="none" stroke="#000" stroke-miterlimit="10" stroke-width="1"/>
      <line id="Línea_125" data-name="Línea 125" x2="287.904" transform="translate(0 10.068)" fill="none" stroke="#000" stroke-miterlimit="10" stroke-width="1"/>
      <rect id="Rectángulo_2123" data-name="Rectángulo 2123" width="86.534" height="86.534" transform="translate(20.953 26.94)" fill="none" stroke="#000" stroke-miterlimit="10" stroke-width="1"/>
      <line id="Línea_126" data-name="Línea 126" x2="132.251" transform="translate(124.087 34.559)" fill="none" stroke="#000" stroke-miterlimit="10" stroke-width="1"/>
      <line id="Línea_127" data-name="Línea 127" x2="132.251" transform="translate(124.087 47.621)" fill="none" stroke="#000" stroke-miterlimit="10" stroke-width="1"/>
      <line id="Línea_128" data-name="Línea 128" x2="132.251" transform="translate(124.087 60.683)" fill="none" stroke="#000" stroke-miterlimit="10" stroke-width="1"/>
      <line id="Línea_129" data-name="Línea 129" x2="132.251" transform="translate(124.087 73.745)" fill="none" stroke="#000" stroke-miterlimit="10" stroke-width="1"/>
      <path id="Trazado_1955" data-name="Trazado 1955" d="M134.3,129,110.73,169.818h47.131Z" transform="translate(-70.075 -79.202)" fill="#50b89d" opacity="0.44"/>
      <circle id="Elipse_46" data-name="Elipse 46" cx="2.449" cy="2.449" r="2.449" transform="translate(3.81 2.721)" fill="#ab8de5"/>
      <circle id="Elipse_47" data-name="Elipse 47" cx="2.449" cy="2.449" r="2.449" transform="translate(12.245 2.721)" fill="#73e5e2"/>
      <circle id="Elipse_48" data-name="Elipse 48" cx="2.449" cy="2.449" r="2.449" transform="translate(20.681 2.721)" fill="#50b89d"/>
      <path id="Trazado_1956" data-name="Trazado 1956" d="M268.893,315.211,277.057,308H268.73Z" transform="translate(-142.085 -160.783)" fill="#ab8de5"/>
      <rect id="Rectángulo_2124" data-name="Rectángulo 2124" width="63.132" height="27.756" rx="13.878" transform="translate(118.645 120.277)" fill="#ab8de5"/>
      <circle id="Elipse_49" data-name="Elipse 49" cx="2.449" cy="2.449" r="2.449" transform="translate(139.326 131.706)" fill="#fff"/>
      <circle id="Elipse_50" data-name="Elipse 50" cx="2.449" cy="2.449" r="2.449" transform="translate(147.762 131.706)" fill="#fff"/>
      <circle id="Elipse_51" data-name="Elipse 51" cx="2.449" cy="2.449" r="2.449" transform="translate(156.197 131.706)" fill="#fff"/>
      <path id="Trazado_1957" data-name="Trazado 1957" d="M737.194,165.211,729.03,158h8.327Z" transform="translate(-351.871 -92.419)" fill="#73e5e2"/>
      <rect id="Rectángulo_2125" data-name="Rectángulo 2125" width="63.132" height="27.756" rx="13.878" transform="translate(393.487 66.397) rotate(180)" fill="#73e5e2"/>
      <circle id="Elipse_52" data-name="Elipse 52" cx="2.449" cy="2.449" r="2.449" transform="translate(367.907 50.07)" fill="#fff"/>
      <circle id="Elipse_53" data-name="Elipse 53" cx="2.449" cy="2.449" r="2.449" transform="translate(359.472 50.07)" fill="#fff"/>
      <circle id="Elipse_54" data-name="Elipse 54" cx="2.449" cy="2.449" r="2.449" transform="translate(351.036 50.07)" fill="#fff"/>
      <circle id="Elipse_55" data-name="Elipse 55" cx="2.449" cy="2.449" r="2.449" transform="translate(378.52 0.272)" fill="#f98b67"/>
      <circle id="Elipse_56" data-name="Elipse 56" cx="2.449" cy="2.449" r="2.449" transform="translate(383.69 10.341)" fill="#f98b67"/>
      <circle id="Elipse_57" data-name="Elipse 57" cx="3.81" cy="3.81" r="3.81" transform="translate(326.001 108.304)" fill="#f98b67"/>
      <circle id="Elipse_58" data-name="Elipse 58" cx="3.81" cy="3.81" r="3.81" transform="translate(348.315 121.366)" fill="#f98b67"/>
      <circle id="Elipse_59" data-name="Elipse 59" cx="3.81" cy="3.81" r="3.81" transform="translate(5.442 125.72)" fill="#f98b67"/>
      <path id="Trazado_1958" data-name="Trazado 1958" d="M632.671,583.022v-.544l-1.306-1.633-3.021-3.668-3.211-3.886s-3.091-2.139-3.886-2.509a21.183,21.183,0,0,0-9.154-2.362c-2.1,0-9.927.316-9.943,1.633,0,1.954,10.966,9.35,19.01,12.942C624.692,583.022,632.671,583.022,632.671,583.022Z" transform="translate(-294.044 -279.471)" fill="#1f161e"/>
      <path id="Trazado_1959" data-name="Trazado 1959" d="M630.855,534.292c-11.162-8.588-33.95-55.431-28.1-72.792,12.441,6.34,26.091,28.2,32.529,46.663a33.083,33.083,0,0,1,.833,3.652l2.612,11.973.631,10.52Z" transform="translate(-293.888 -230.742)" fill="#fbdc8e"/>
      <path id="Trazado_1960" data-name="Trazado 1960" d="M664.989,537.018c-3.766-3.059-4.969-12.115-5-15.495-.06-6.308.909-10.956,6.3-17.895s3.957-18.45,11.119-26.216,11.908-9.932,20.409-9.932,11.2,13.78,11.157,17.247c-.1,13.987-8.909,15.968-14.286,22.64-3.9,4.844-4.207,8.806-5.388,11.07-6.335,12.2-11.484,16.79-15.293,18.58" transform="translate(-320.403 -233.467)" fill="#73e5e2"/>
      <path id="Trazado_1961" data-name="Trazado 1961" d="M673,538.913c.109-23.854,25.247-59.682,30.619-65.053" transform="translate(-326.334 -236.375)" fill="none" stroke="#fff" stroke-linecap="round" stroke-linejoin="round" stroke-width="0.4"/>
      <path id="Trazado_1962" data-name="Trazado 1962" d="M671.329,561.866c-2.781-3.031-5.312-11.625-4.931-13.856" transform="translate(-323.308 -270.169)" fill="none" stroke="#fff" stroke-linecap="round" stroke-linejoin="round" stroke-width="0.4"/>
      <path id="Trazado_1963" data-name="Trazado 1963" d="M637.607,536.109c-3.94-6.983-22.635-41.03-29.607-66.109" transform="translate(-296.71 -234.615)" fill="none" stroke="#fff" stroke-linecap="round" stroke-linejoin="round" stroke-width="0.4"/>
      <path id="Trazado_1964" data-name="Trazado 1964" d="M657.387,595.25H669.1l-9.8,36.464H633.109L623.47,595.25h33.917" transform="translate(-303.761 -291.699)" fill="#b37361"/>
      <path id="Trazado_1965" data-name="Trazado 1965" d="M609.19,572.78c5.709.392,12.893.653,17.96,4.109" transform="translate(-297.252 -281.458)" fill="none" stroke="#fff" stroke-linecap="round" stroke-linejoin="round" stroke-width="0.4"/>
    </g>
    <g id="Man" transform="translate(413.28 55.785)">
      <path id="Trazado_1966" data-name="Trazado 1966" d="M768.132,321c-1.377,6.569-11.38,88.053-8.109,107.515s56.6,60.242,58.936,60.955c2.721-2,6.727-8.545,6.727-8.545s-39.1-45.33-39.849-47.148S794.4,326.987,794.4,326.987Z" transform="translate(-759.369 -202.083)" fill="#0a1a41"/>
      <path id="Trazado_1967" data-name="Trazado 1967" d="M847.826,342.362,807.927,505.1H794.49L808.107,335.33Z" transform="translate(-775.376 -208.614)" fill="#0c2769"/>
      <path id="Trazado_1968" data-name="Trazado 1968" d="M805.708,177.05c5.508,0,34.238.931,39.43,11.043s.3,56.851-2.928,58.664c-1.742.974-2.215.027-2.721,2.008s-5.442,21.459-5.442,21.459c-3.135.087-48.84-6.8-63.676-14.847.087-2.237.805-8.055.805-8.5-1.97.805-4.354.974-5.007,0-5.791-8.768,2.841-54.479,9.034-63.676C777.837,179.254,796.869,177.077,805.708,177.05Z" transform="translate(-761.597 -136.477)" fill="#00ba96"/>
      <path id="Trazado_1969" data-name="Trazado 1969" d="M875.18,306.611c1.35,0,12.969,8.164,11.973,12.175.816-3.222,3.385-13.176,3.385-13.176C889.434,305.822,876.171,306.628,875.18,306.611Z" transform="translate(-812.151 -195.069)" fill="#1f161e"/>
      <path id="Trazado_1970" data-name="Trazado 1970" d="M841.772,171.81c0,1.774-13.992,1.774-13.992,0V153.85h13.992Z" transform="translate(-790.548 -125.903)" fill="#f8cdba"/>
      <path id="Trazado_1971" data-name="Trazado 1971" d="M838.74,158.1c1.089,0,8.028,3.07,8.028,4.778V153.85C845.037,153.85,838.74,158.1,838.74,158.1Z" transform="translate(-795.543 -125.903)" fill="#1f161e"/>
      <circle id="Elipse_60" data-name="Elipse 60" cx="13.611" cy="13.611" r="13.611" transform="translate(27.67 6.286)" fill="#f8cdba"/>
      <path id="Trazado_1972" data-name="Trazado 1972" d="M817.262,102.5c-6.988,0-11.342,4.387-11.342,10.009,0,4.675,1.132,7.32,2.466,7.989.843-4.539,2.678-6.64,4.2-7.543,1.181.9,3.2,3.091,5.9,3.766s9.726.544,15.4,4.67c1.856-1.687,3.706-3.88,3.706-6.466s-1.143-5.829-7.864-7.7C825.284,105.989,824.664,102.5,817.262,102.5Z" transform="translate(-780.585 -102.5)" fill="#1f161e"/>
      <ellipse id="Elipse_61" data-name="Elipse 61" cx="2.384" cy="1.241" rx="2.384" ry="1.241" transform="translate(26.178 21.459)" fill="#fa9e9f"/>
      <ellipse id="Elipse_62" data-name="Elipse 62" cx="2.384" cy="1.241" rx="2.384" ry="1.241" transform="translate(41.172 21.459)" fill="#fa9e9f"/>
      <path id="Trazado_1973" data-name="Trazado 1973" d="M821.374,139.48c-.446.637-2.721,3.309-.321,4.387" transform="translate(-786.989 -119.354)" fill="none" stroke="#1f161e" stroke-linecap="round" stroke-miterlimit="10" stroke-width="1"/>
      <path id="Trazado_1974" data-name="Trazado 1974" d="M830.79,151.863a4.045,4.045,0,0,0,2.406-1.693" transform="translate(-791.92 -124.226)" fill="none" stroke="#1f161e" stroke-linecap="round" stroke-miterlimit="10" stroke-width="1"/>
      <circle id="Elipse_63" data-name="Elipse 63" cx="3.146" cy="3.146" r="3.146" transform="translate(50.718 18.319)" fill="#f8cdba"/>
      <path id="Trazado_1975" data-name="Trazado 1975" d="M830.161,226.26c-.245,3-1.2,17.851-.844,19.8-4.566,1.589-46.375,21.416-53.608,23.593" transform="translate(-766.817 -158.905)" fill="none" stroke="#1f161e" stroke-linecap="round" stroke-miterlimit="10" stroke-width="1"/>
      <path id="Trazado_1976" data-name="Trazado 1976" d="M784.26,217.65c-.963,3.363-4.207,18.629-1.927,25.721" transform="translate(-769.472 -154.981)" fill="none" stroke="#1f161e" stroke-linecap="round" stroke-miterlimit="10" stroke-width="1"/>
      <path id="Trazado_1977" data-name="Trazado 1977" d="M806.15,293.24c2.177,1.529,23.043,10.765,51.893,7.282" transform="translate(-780.69 -189.431)" fill="none" stroke="#1f161e" stroke-linecap="round" stroke-miterlimit="10" stroke-width="1"/>
      <path id="Trazado_1978" data-name="Trazado 1978" d="M793.1,262.929c1.4.223-3.162-3.418-5.747-2.063s-6.068,7.489-5.355,8.909a1.839,1.839,0,0,0,2.721.9C785.424,270.227,790.665,262.537,793.1,262.929Z" transform="translate(-769.641 -174.539)" fill="#f8cdba"/>
      <path id="Trazado_1979" data-name="Trazado 1979" d="M876.184,616.08c.746.544,7.358,5.018,7.413,7.837s-6.161,12.164-7.413,12.43-2.144-.789-2.144-2.678,2.362-5.2,2.046-6.667-3.369-4.158-4.936-4.207" transform="translate(-810.314 -336.568)" fill="#1f161e"/>
      <path id="Trazado_1980" data-name="Trazado 1980" d="M799.717,647.26c0,1.3.751,9.426-.751,10.183s-18.08,1.2-18.831.452-1.208-2.335-.544-2.787,7.075-1.736,7.946-2.335,2.073-3.81,1.633-5.513" transform="translate(-768.44 -350.779)" fill="#1f161e"/>
    </g>
    <g id="Woman" transform="translate(-0.002 117.246)">
      <rect id="Rectángulo_2126" data-name="Rectángulo 2126" width="105.245" height="53.385" transform="translate(14.157 174.653)" fill="#b37361"/>
      <path id="Trazado_1981" data-name="Trazado 1981" d="M314.66,490.37c.457,2.721,8.218,64.933,9.475,65.962s14.607,3.309,15.75,1.6c.229-2.721.544-46.108,1.252-49.989" transform="translate(-143.408 -340.736)" fill="#0e866f"/>
      <path id="Trazado_1982" data-name="Trazado 1982" d="M37.67,435.574c-5.383-2.65,5.84,49.891,35.376,49.891s79.252-44.992,87.3-44.992c17.769,0,59.834,34.886,63.132,34.886,2.525-2.525,7.576-6.945,7.576-8.708s-40.274-68.03-70.409-68.03C148.962,398.636,49.823,441.577,37.67,435.574Z" transform="translate(-16.574 -298.92)" fill="#00ba96"/>
      <path id="Trazado_1983" data-name="Trazado 1983" d="M54.29,461.169c5.905-1.339,13.252-4.806,19.756-8.349-17.693,5.785-32.192,9.524-36.377,7.456-2.852-1.4-1.045,12.659,5.66,26.205C42.116,483.864,40.385,464.347,54.29,461.169Z" transform="translate(-16.573 -323.622)" fill="#0c2769"/>
      <path id="Trazado_1984" data-name="Trazado 1984" d="M51.868,298.792c4.653.125,28.877-.588,35.517,5.736,4.925,4.691,20.24,45.036,22.6,59.2C99.7,368.961,25.51,404.483,2.548,388.864c-.506-12.137,1.85-60.384,16.866-85.685C24.906,299.521,47.394,298.677,51.868,298.792Z" transform="translate(-1.132 -253.418)" fill="#0c2769"/>
      <path id="Trazado_1985" data-name="Trazado 1985" d="M98.71,277.59H84.56V292.8c0,3.81,14.15,3.777,14.15,0Z" transform="translate(-38.538 -243.76)" fill="#f8cdba"/>
      <path id="Trazado_1986" data-name="Trazado 1986" d="M84.56,285.791c0-1.687,4.675-5.927,7.565-5.774.071-1.878-6.6-4.577-6.6-4.577l-.963,2.6Z" transform="translate(-38.538 -242.78)" fill="#1f161e"/>
      <path id="Trazado_1987" data-name="Trazado 1987" d="M105.376,256.821a21.269,21.269,0,0,0,.479-4.479c0-11.222-8.768-20.322-19.593-20.322s-19.593,9.1-19.593,20.322a21.269,21.269,0,0,0,.479,4.479Z" transform="translate(-30.384 -222.991)" fill="#1f161e"/>
      <path id="Trazado_1988" data-name="Trazado 1988" d="M105.325,249.5c-2.4-.365-4.795-2.253-6.466-3.489-9.524,6.977-15.625,7.07-16.284,7.07s-3.342,3.853-4.577,4.289l-.109-.065a14.858,14.858,0,1,0,28.556-7.8A4.55,4.55,0,0,1,105.325,249.5Z" transform="translate(-35.498 -229.367)" fill="#f8cdba"/>
      <circle id="Elipse_64" data-name="Elipse 64" cx="5.78" cy="5.78" r="5.78" transform="translate(39.486)" fill="#1f161e"/>
      <path id="Trazado_1989" data-name="Trazado 1989" d="M85.959,258.43a2.433,2.433,0,0,0,0,4.86" transform="translate(-38.119 -235.028)" fill="none" stroke="#1f161e" stroke-linecap="round" stroke-miterlimit="10" stroke-width="1"/>
      <path id="Trazado_1990" data-name="Trazado 1990" d="M121.94,259c.713.952,2.547,2.623,0,4.392" transform="translate(-55.574 -235.287)" fill="none" stroke="#1f161e" stroke-linecap="round" stroke-miterlimit="10" stroke-width="1"/>
      <path id="Trazado_1991" data-name="Trazado 1991" d="M107.75,269.41a2.911,2.911,0,0,0,1.834,2.857" transform="translate(-49.107 -240.032)" fill="none" stroke="#1f161e" stroke-linecap="round" stroke-miterlimit="10" stroke-width="1"/>
      <ellipse id="Elipse_65" data-name="Elipse 65" cx="2.242" cy="1.165" rx="2.242" ry="1.165" transform="translate(51.661 27.218)" fill="#fa9e9f"/>
      <ellipse id="Elipse_66" data-name="Elipse 66" cx="2.242" cy="1.165" rx="2.242" ry="1.165" transform="translate(68.331 27.218)" fill="#fa9e9f"/>
      <path id="Trazado_1992" data-name="Trazado 1992" d="M157.54,372.811l15.124-3.891c1.453,2.471,8.528,26.749,8.528,26.749l-23.348,9.84C158.15,400.911,159.069,379.848,157.54,372.811Z" transform="translate(-71.799 -285.384)" fill="#f8cdba"/>
      <path id="Trazado_1993" data-name="Trazado 1993" d="M58.049,369.08c0,1.829-1.54,8.789-2.449,12.06" transform="translate(-25.339 -285.457)" fill="none" stroke="#1f161e" stroke-linecap="round" stroke-miterlimit="10" stroke-width="1"/>
      <path id="Trazado_1994" data-name="Trazado 1994" d="M152.408,352.922c-.365-2.879-2.5-19.1-6.128-27.642" transform="translate(-66.667 -265.495)" fill="none" stroke="#1f161e" stroke-linecap="round" stroke-miterlimit="10" stroke-width="1"/>
      <path id="Trazado_1995" data-name="Trazado 1995" d="M157.54,372.811l15.124-3.891c1.453,2.471,8.528,26.749,8.528,26.749l-23.348,9.84C158.15,400.911,159.069,379.848,157.54,372.811Z" transform="translate(-71.799 -285.384)" fill="#f8cdba"/>
      <path id="Trazado_1996" data-name="Trazado 1996" d="M381,531.718c.337.544,4.844,6.074,6.438,6.134s11.277-6.5,10.852-7.908-6.5-.49-7.543-.985a11.523,11.523,0,0,1-3.761-3.859" transform="translate(-173.643 -356.565)" fill="#1f161e"/>
      <path id="Trazado_1997" data-name="Trazado 1997" d="M337.021,612.133c-.114.6-.729,7.728.376,8.882s12.626,3.157,13.3,1.845-4.354-4.866-4.74-5.943a11.439,11.439,0,0,1,0-5.377" transform="translate(-153.474 -395.96)" fill="#1f161e"/>
      <path id="Trazado_1998" data-name="Trazado 1998" d="M261.141,393.793H209.89l12.2-32.333h51.251Z" transform="translate(-95.658 -281.984)" fill="#969696"/>
      <rect id="Rectángulo_2127" data-name="Rectángulo 2127" width="51.251" height="1.219" transform="translate(71.525 110.59)" fill="#969696"/>
      <path id="Trazado_1999" data-name="Trazado 1999" d="M30.259,386.359c-.985,3.679-5.769,19.462-3.821,22.183s50.745-3.445,63.8-7.511c3.325-1.089,5.791-3.94,7.266-4.31a7.788,7.788,0,0,1,8.795,5.562c-5.214,2.525-80.493,40.96-104.886,23.854-4.61-3.3,3.478-43.577,3.848-45.607C9.382,381.025,30.259,386.359,30.259,386.359Z" transform="translate(0.002 -290.676)" fill="#f8cdba"/>
      <path id="Trazado_2000" data-name="Trazado 2000" d="M158.82,415.446c1.469-.348,2.754-.691,3.81-1.018,3.325-1.089,5.791-3.94,7.266-4.31a7.788,7.788,0,0,1,8.795,5.562" transform="translate(-72.382 -304.11)" fill="none" stroke="#1f161e" stroke-linecap="round" stroke-miterlimit="10" stroke-width="1"/>
    </g>
  </g>
</svg>
