<svg xmlns="http://www.w3.org/2000/svg" width="499.095" height="420.699" viewBox="0 0 499.095 420.699" style=""><g transform="translate(0.002)"><g transform="translate(44.371)" opacity="0.045"><path fill="#63adfb" d="M0,210.349A210.349,210.349 0,1,1 420.698,210.349A210.349,210.349 0,1,1 0,210.349" class="mKCUldXu_0"></path></g><g transform="translate(19.608 20.409)"><path width="128.985" height="199.737" transform="translate(222.867 98.236)" fill="#fff" d="M0 0 L128.985 0 L128.985 199.737 L0 199.737 Z" class="mKCUldXu_1"></path><path transform="translate(197.015 220.146)" fill="none" stroke="#000" stroke-miterlimit="10" stroke-width="1" d="M0,0L132.251,0" class="mKCUldXu_2"></path><path transform="translate(197.015 233.208)" fill="none" stroke="#000" stroke-miterlimit="10" stroke-width="1" d="M0,0L132.251,0" class="mKCUldXu_3"></path><path transform="translate(197.015 246.269)" fill="none" stroke="#000" stroke-miterlimit="10" stroke-width="1" d="M0,0L132.251,0" class="mKCUldXu_4"></path><path transform="translate(197.015 259.331)" fill="none" stroke="#000" stroke-miterlimit="10" stroke-width="1" d="M0,0L132.251,0" class="mKCUldXu_5"></path><path transform="translate(253.617 122.726)" fill="#f2f2f2" d="M0,33.743A33.743,33.743 0,1,1 67.486,33.743A33.743,33.743 0,1,1 0,33.743" class="mKCUldXu_6"></path><path width="53.336" height="49.526" transform="translate(329.266 169.259)" fill="#50b89d" opacity="0.7" d="M0 0 L53.336 0 L53.336 49.526 L0 49.526 Z" class="mKCUldXu_7"></path><text transform="translate(342.938 200.98)" fill="#fff" font-size="13" font-family="Helvetica"><tspan x="0" y="0">&lt; / &gt;</tspan></text><path width="287.904" height="189.396" fill="none" stroke="#000" stroke-miterlimit="10" stroke-width="1" d="M0 0 L287.904 0 L287.904 189.396 L0 189.396 Z" class="mKCUldXu_8"></path><path transform="translate(0 10.068)" fill="none" stroke="#000" stroke-miterlimit="10" stroke-width="1" d="M0,0L287.904,0" class="mKCUldXu_9"></path><path width="86.534" height="86.534" transform="translate(20.953 26.94)" fill="none" stroke="#000" stroke-miterlimit="10" stroke-width="1" d="M0 0 L86.534 0 L86.534 86.534 L0 86.534 Z" class="mKCUldXu_10"></path><path transform="translate(124.087 34.559)" fill="none" stroke="#000" stroke-miterlimit="10" stroke-width="1" d="M0,0L132.251,0" class="mKCUldXu_11"></path><path transform="translate(124.087 47.621)" fill="none" stroke="#000" stroke-miterlimit="10" stroke-width="1" d="M0,0L132.251,0" class="mKCUldXu_12"></path><path transform="translate(124.087 60.683)" fill="none" stroke="#000" stroke-miterlimit="10" stroke-width="1" d="M0,0L132.251,0" class="mKCUldXu_13"></path><path transform="translate(124.087 73.745)" fill="none" stroke="#000" stroke-miterlimit="10" stroke-width="1" d="M0,0L132.251,0" class="mKCUldXu_14"></path><path d="M134.3,129,110.73,169.818h47.131Z" transform="translate(-70.075 -79.202)" fill="#50b89d" opacity="0.44" class="mKCUldXu_15"></path><path transform="translate(3.81 2.721)" fill="#ab8de5" d="M0,2.449A2.449,2.449 0,1,1 4.898,2.449A2.449,2.449 0,1,1 0,2.449" class="mKCUldXu_16"></path><path transform="translate(12.245 2.721)" fill="#73e5e2" d="M0,2.449A2.449,2.449 0,1,1 4.898,2.449A2.449,2.449 0,1,1 0,2.449" class="mKCUldXu_17"></path><path transform="translate(20.681 2.721)" fill="#50b89d" d="M0,2.449A2.449,2.449 0,1,1 4.898,2.449A2.449,2.449 0,1,1 0,2.449" class="mKCUldXu_18"></path><path d="M268.893,315.211,277.057,308H268.73Z" transform="translate(-142.085 -160.783)" fill="#ab8de5" class="mKCUldXu_19"></path><path width="63.132" height="27.756" transform="translate(118.645 120.277)" fill="#ab8de5" d="M 13,0 L 50.132,0 A 13,13,0,0,1,63.132,13 L 63.132,14.756 A 13,13,0,0,1,50.132,27.756 L 13,27.756 A 13,13,0,0,1,0,14.756 L 0,13 A 13,13,0,0,1,13,0" class="mKCUldXu_20"></path><path transform="translate(139.326 131.706)" fill="#fff" d="M0,2.449A2.449,2.449 0,1,1 4.898,2.449A2.449,2.449 0,1,1 0,2.449" class="mKCUldXu_21"></path><path transform="translate(147.762 131.706)" fill="#fff" d="M0,2.449A2.449,2.449 0,1,1 4.898,2.449A2.449,2.449 0,1,1 0,2.449" class="mKCUldXu_22"></path><path transform="translate(156.197 131.706)" fill="#fff" d="M0,2.449A2.449,2.449 0,1,1 4.898,2.449A2.449,2.449 0,1,1 0,2.449" class="mKCUldXu_23"></path><path d="M737.194,165.211,729.03,158h8.327Z" transform="translate(-351.871 -92.419)" fill="#73e5e2" class="mKCUldXu_24"></path><path width="63.132" height="27.756" transform="translate(393.487 66.397) rotate(180)" fill="#73e5e2" d="M 13,0 L 50.132,0 A 13,13,0,0,1,63.132,13 L 63.132,14.756 A 13,13,0,0,1,50.132,27.756 L 13,27.756 A 13,13,0,0,1,0,14.756 L 0,13 A 13,13,0,0,1,13,0" class="mKCUldXu_25"></path><path transform="translate(367.907 50.07)" fill="#fff" d="M0,2.449A2.449,2.449 0,1,1 4.898,2.449A2.449,2.449 0,1,1 0,2.449" class="mKCUldXu_26"></path><path transform="translate(359.472 50.07)" fill="#fff" d="M0,2.449A2.449,2.449 0,1,1 4.898,2.449A2.449,2.449 0,1,1 0,2.449" class="mKCUldXu_27"></path><path transform="translate(351.036 50.07)" fill="#fff" d="M0,2.449A2.449,2.449 0,1,1 4.898,2.449A2.449,2.449 0,1,1 0,2.449" class="mKCUldXu_28"></path><path transform="translate(378.52 0.272)" fill="#f98b67" d="M0,2.449A2.449,2.449 0,1,1 4.898,2.449A2.449,2.449 0,1,1 0,2.449" class="mKCUldXu_29"></path><path transform="translate(383.69 10.341)" fill="#f98b67" d="M0,2.449A2.449,2.449 0,1,1 4.898,2.449A2.449,2.449 0,1,1 0,2.449" class="mKCUldXu_30"></path><path transform="translate(326.001 108.304)" fill="#f98b67" d="M0,3.81A3.81,3.81 0,1,1 7.62,3.81A3.81,3.81 0,1,1 0,3.81" class="mKCUldXu_31"></path><path transform="translate(348.315 121.366)" fill="#f98b67" d="M0,3.81A3.81,3.81 0,1,1 7.62,3.81A3.81,3.81 0,1,1 0,3.81" class="mKCUldXu_32"></path><path transform="translate(5.442 125.72)" fill="#f98b67" d="M0,3.81A3.81,3.81 0,1,1 7.62,3.81A3.81,3.81 0,1,1 0,3.81" class="mKCUldXu_33"></path><path d="M632.671,583.022v-.544l-1.306-1.633-3.021-3.668-3.211-3.886s-3.091-2.139-3.886-2.509a21.183,21.183,0,0,0-9.154-2.362c-2.1,0-9.927.316-9.943,1.633,0,1.954,10.966,9.35,19.01,12.942C624.692,583.022,632.671,583.022,632.671,583.022Z" transform="translate(-294.044 -279.471)" fill="#1f161e" class="mKCUldXu_34"></path><path d="M630.855,534.292c-11.162-8.588-33.95-55.431-28.1-72.792,12.441,6.34,26.091,28.2,32.529,46.663a33.083,33.083,0,0,1,.833,3.652l2.612,11.973.631,10.52Z" transform="translate(-293.888 -230.742)" fill="#fbdc8e" class="mKCUldXu_35"></path><path d="M664.989,537.018c-3.766-3.059-4.969-12.115-5-15.495-.06-6.308.909-10.956,6.3-17.895s3.957-18.45,11.119-26.216,11.908-9.932,20.409-9.932,11.2,13.78,11.157,17.247c-.1,13.987-8.909,15.968-14.286,22.64-3.9,4.844-4.207,8.806-5.388,11.07-6.335,12.2-11.484,16.79-15.293,18.58" transform="translate(-320.403 -233.467)" fill="#73e5e2" class="mKCUldXu_36"></path><path d="M673,538.913c.109-23.854,25.247-59.682,30.619-65.053" transform="translate(-326.334 -236.375)" fill="none" stroke="#fff" stroke-linecap="round" stroke-linejoin="round" stroke-width="0.4" class="mKCUldXu_37"></path><path d="M671.329,561.866c-2.781-3.031-5.312-11.625-4.931-13.856" transform="translate(-323.308 -270.169)" fill="none" stroke="#fff" stroke-linecap="round" stroke-linejoin="round" stroke-width="0.4" class="mKCUldXu_38"></path><path d="M637.607,536.109c-3.94-6.983-22.635-41.03-29.607-66.109" transform="translate(-296.71 -234.615)" fill="none" stroke="#fff" stroke-linecap="round" stroke-linejoin="round" stroke-width="0.4" class="mKCUldXu_39"></path><path d="M657.387,595.25H669.1l-9.8,36.464H633.109L623.47,595.25h33.917" transform="translate(-303.761 -291.699)" fill="#b37361" class="mKCUldXu_40"></path><path d="M609.19,572.78c5.709.392,12.893.653,17.96,4.109" transform="translate(-297.252 -281.458)" fill="none" stroke="#fff" stroke-linecap="round" stroke-linejoin="round" stroke-width="0.4" class="mKCUldXu_41"></path></g><g transform="translate(413.28 55.785)"><path d="M768.132,321c-1.377,6.569-11.38,88.053-8.109,107.515s56.6,60.242,58.936,60.955c2.721-2,6.727-8.545,6.727-8.545s-39.1-45.33-39.849-47.148S794.4,326.987,794.4,326.987Z" transform="translate(-759.369 -202.083)" fill="#0a1a41" class="mKCUldXu_42"></path><path d="M847.826,342.362,807.927,505.1H794.49L808.107,335.33Z" transform="translate(-775.376 -208.614)" fill="#0c2769" class="mKCUldXu_43"></path><path d="M805.708,177.05c5.508,0,34.238.931,39.43,11.043s.3,56.851-2.928,58.664c-1.742.974-2.215.027-2.721,2.008s-5.442,21.459-5.442,21.459c-3.135.087-48.84-6.8-63.676-14.847.087-2.237.805-8.055.805-8.5-1.97.805-4.354.974-5.007,0-5.791-8.768,2.841-54.479,9.034-63.676C777.837,179.254,796.869,177.077,805.708,177.05Z" transform="translate(-761.597 -136.477)" fill="#00ba96" class="mKCUldXu_44"></path><path d="M875.18,306.611c1.35,0,12.969,8.164,11.973,12.175.816-3.222,3.385-13.176,3.385-13.176C889.434,305.822,876.171,306.628,875.18,306.611Z" transform="translate(-812.151 -195.069)" fill="#1f161e" class="mKCUldXu_45"></path><path d="M841.772,171.81c0,1.774-13.992,1.774-13.992,0V153.85h13.992Z" transform="translate(-790.548 -125.903)" fill="#f8cdba" class="mKCUldXu_46"></path><path d="M838.74,158.1c1.089,0,8.028,3.07,8.028,4.778V153.85C845.037,153.85,838.74,158.1,838.74,158.1Z" transform="translate(-795.543 -125.903)" fill="#1f161e" class="mKCUldXu_47"></path><path transform="translate(27.67 6.286)" fill="#f8cdba" d="M0,13.611A13.611,13.611 0,1,1 27.222,13.611A13.611,13.611 0,1,1 0,13.611" class="mKCUldXu_48"></path><path d="M817.262,102.5c-6.988,0-11.342,4.387-11.342,10.009,0,4.675,1.132,7.32,2.466,7.989.843-4.539,2.678-6.64,4.2-7.543,1.181.9,3.2,3.091,5.9,3.766s9.726.544,15.4,4.67c1.856-1.687,3.706-3.88,3.706-6.466s-1.143-5.829-7.864-7.7C825.284,105.989,824.664,102.5,817.262,102.5Z" transform="translate(-780.585 -102.5)" fill="#1f161e" class="mKCUldXu_49"></path><path transform="translate(26.178 21.459)" fill="#fa9e9f" d="M0,1.241A2.384,1.241 0,1,1 4.768,1.241A2.384,1.241 0,1,1 0,1.241" class="mKCUldXu_50"></path><path transform="translate(41.172 21.459)" fill="#fa9e9f" d="M0,1.241A2.384,1.241 0,1,1 4.768,1.241A2.384,1.241 0,1,1 0,1.241" class="mKCUldXu_51"></path><path d="M821.374,139.48c-.446.637-2.721,3.309-.321,4.387" transform="translate(-786.989 -119.354)" fill="none" stroke="#1f161e" stroke-linecap="round" stroke-miterlimit="10" stroke-width="1" class="mKCUldXu_52"></path><path d="M830.79,151.863a4.045,4.045,0,0,0,2.406-1.693" transform="translate(-791.92 -124.226)" fill="none" stroke="#1f161e" stroke-linecap="round" stroke-miterlimit="10" stroke-width="1" class="mKCUldXu_53"></path><path transform="translate(50.718 18.319)" fill="#f8cdba" d="M0,3.146A3.146,3.146 0,1,1 6.292,3.146A3.146,3.146 0,1,1 0,3.146" class="mKCUldXu_54"></path><path d="M830.161,226.26c-.245,3-1.2,17.851-.844,19.8-4.566,1.589-46.375,21.416-53.608,23.593" transform="translate(-766.817 -158.905)" fill="none" stroke="#1f161e" stroke-linecap="round" stroke-miterlimit="10" stroke-width="1" class="mKCUldXu_55"></path><path d="M784.26,217.65c-.963,3.363-4.207,18.629-1.927,25.721" transform="translate(-769.472 -154.981)" fill="none" stroke="#1f161e" stroke-linecap="round" stroke-miterlimit="10" stroke-width="1" class="mKCUldXu_56"></path><path d="M806.15,293.24c2.177,1.529,23.043,10.765,51.893,7.282" transform="translate(-780.69 -189.431)" fill="none" stroke="#1f161e" stroke-linecap="round" stroke-miterlimit="10" stroke-width="1" class="mKCUldXu_57"></path><path d="M793.1,262.929c1.4.223-3.162-3.418-5.747-2.063s-6.068,7.489-5.355,8.909a1.839,1.839,0,0,0,2.721.9C785.424,270.227,790.665,262.537,793.1,262.929Z" transform="translate(-769.641 -174.539)" fill="#f8cdba" class="mKCUldXu_58"></path><path d="M876.184,616.08c.746.544,7.358,5.018,7.413,7.837s-6.161,12.164-7.413,12.43-2.144-.789-2.144-2.678,2.362-5.2,2.046-6.667-3.369-4.158-4.936-4.207" transform="translate(-810.314 -336.568)" fill="#1f161e" class="mKCUldXu_59"></path><path d="M799.717,647.26c0,1.3.751,9.426-.751,10.183s-18.08,1.2-18.831.452-1.208-2.335-.544-2.787,7.075-1.736,7.946-2.335,2.073-3.81,1.633-5.513" transform="translate(-768.44 -350.779)" fill="#1f161e" class="mKCUldXu_60"></path></g><g transform="translate(-0.002 117.246)"><path width="105.245" height="53.385" transform="translate(14.157 174.653)" fill="#b37361" d="M0 0 L105.245 0 L105.245 53.385 L0 53.385 Z" class="mKCUldXu_61"></path><path d="M314.66,490.37c.457,2.721,8.218,64.933,9.475,65.962s14.607,3.309,15.75,1.6c.229-2.721.544-46.108,1.252-49.989" transform="translate(-143.408 -340.736)" fill="#0e866f" class="mKCUldXu_62"></path><path d="M37.67,435.574c-5.383-2.65,5.84,49.891,35.376,49.891s79.252-44.992,87.3-44.992c17.769,0,59.834,34.886,63.132,34.886,2.525-2.525,7.576-6.945,7.576-8.708s-40.274-68.03-70.409-68.03C148.962,398.636,49.823,441.577,37.67,435.574Z" transform="translate(-16.574 -298.92)" fill="#00ba96" class="mKCUldXu_63"></path><path d="M54.29,461.169c5.905-1.339,13.252-4.806,19.756-8.349-17.693,5.785-32.192,9.524-36.377,7.456-2.852-1.4-1.045,12.659,5.66,26.205C42.116,483.864,40.385,464.347,54.29,461.169Z" transform="translate(-16.573 -323.622)" fill="#0c2769" class="mKCUldXu_64"></path><path d="M51.868,298.792c4.653.125,28.877-.588,35.517,5.736,4.925,4.691,20.24,45.036,22.6,59.2C99.7,368.961,25.51,404.483,2.548,388.864c-.506-12.137,1.85-60.384,16.866-85.685C24.906,299.521,47.394,298.677,51.868,298.792Z" transform="translate(-1.132 -253.418)" fill="#0c2769" class="mKCUldXu_65"></path><path d="M98.71,277.59H84.56V292.8c0,3.81,14.15,3.777,14.15,0Z" transform="translate(-38.538 -243.76)" fill="#f8cdba" class="mKCUldXu_66"></path><path d="M84.56,285.791c0-1.687,4.675-5.927,7.565-5.774.071-1.878-6.6-4.577-6.6-4.577l-.963,2.6Z" transform="translate(-38.538 -242.78)" fill="#1f161e" class="mKCUldXu_67"></path><path d="M105.376,256.821a21.269,21.269,0,0,0,.479-4.479c0-11.222-8.768-20.322-19.593-20.322s-19.593,9.1-19.593,20.322a21.269,21.269,0,0,0,.479,4.479Z" transform="translate(-30.384 -222.991)" fill="#1f161e" class="mKCUldXu_68"></path><path d="M105.325,249.5c-2.4-.365-4.795-2.253-6.466-3.489-9.524,6.977-15.625,7.07-16.284,7.07s-3.342,3.853-4.577,4.289l-.109-.065a14.858,14.858,0,1,0,28.556-7.8A4.55,4.55,0,0,1,105.325,249.5Z" transform="translate(-35.498 -229.367)" fill="#f8cdba" class="mKCUldXu_69"></path><path transform="translate(39.486)" fill="#1f161e" d="M0,5.78A5.78,5.78 0,1,1 11.56,5.78A5.78,5.78 0,1,1 0,5.78" class="mKCUldXu_70"></path><path d="M85.959,258.43a2.433,2.433,0,0,0,0,4.86" transform="translate(-38.119 -235.028)" fill="none" stroke="#1f161e" stroke-linecap="round" stroke-miterlimit="10" stroke-width="1" class="mKCUldXu_71"></path><path d="M121.94,259c.713.952,2.547,2.623,0,4.392" transform="translate(-55.574 -235.287)" fill="none" stroke="#1f161e" stroke-linecap="round" stroke-miterlimit="10" stroke-width="1" class="mKCUldXu_72"></path><path d="M107.75,269.41a2.911,2.911,0,0,0,1.834,2.857" transform="translate(-49.107 -240.032)" fill="none" stroke="#1f161e" stroke-linecap="round" stroke-miterlimit="10" stroke-width="1" class="mKCUldXu_73"></path><path transform="translate(51.661 27.218)" fill="#fa9e9f" d="M0,1.165A2.242,1.165 0,1,1 4.484,1.165A2.242,1.165 0,1,1 0,1.165" class="mKCUldXu_74"></path><path transform="translate(68.331 27.218)" fill="#fa9e9f" d="M0,1.165A2.242,1.165 0,1,1 4.484,1.165A2.242,1.165 0,1,1 0,1.165" class="mKCUldXu_75"></path><path d="M157.54,372.811l15.124-3.891c1.453,2.471,8.528,26.749,8.528,26.749l-23.348,9.84C158.15,400.911,159.069,379.848,157.54,372.811Z" transform="translate(-71.799 -285.384)" fill="#f8cdba" class="mKCUldXu_76"></path><path d="M58.049,369.08c0,1.829-1.54,8.789-2.449,12.06" transform="translate(-25.339 -285.457)" fill="none" stroke="#1f161e" stroke-linecap="round" stroke-miterlimit="10" stroke-width="1" class="mKCUldXu_77"></path><path d="M152.408,352.922c-.365-2.879-2.5-19.1-6.128-27.642" transform="translate(-66.667 -265.495)" fill="none" stroke="#1f161e" stroke-linecap="round" stroke-miterlimit="10" stroke-width="1" class="mKCUldXu_78"></path><path d="M157.54,372.811l15.124-3.891c1.453,2.471,8.528,26.749,8.528,26.749l-23.348,9.84C158.15,400.911,159.069,379.848,157.54,372.811Z" transform="translate(-71.799 -285.384)" fill="#f8cdba" class="mKCUldXu_79"></path><path d="M381,531.718c.337.544,4.844,6.074,6.438,6.134s11.277-6.5,10.852-7.908-6.5-.49-7.543-.985a11.523,11.523,0,0,1-3.761-3.859" transform="translate(-173.643 -356.565)" fill="#1f161e" class="mKCUldXu_80"></path><path d="M337.021,612.133c-.114.6-.729,7.728.376,8.882s12.626,3.157,13.3,1.845-4.354-4.866-4.74-5.943a11.439,11.439,0,0,1,0-5.377" transform="translate(-153.474 -395.96)" fill="#1f161e" class="mKCUldXu_81"></path><path d="M261.141,393.793H209.89l12.2-32.333h51.251Z" transform="translate(-95.658 -281.984)" fill="#969696" class="mKCUldXu_82"></path><path width="51.251" height="1.219" transform="translate(71.525 110.59)" fill="#969696" d="M0 0 L51.251 0 L51.251 1.219 L0 1.219 Z" class="mKCUldXu_83"></path><path d="M30.259,386.359c-.985,3.679-5.769,19.462-3.821,22.183s50.745-3.445,63.8-7.511c3.325-1.089,5.791-3.94,7.266-4.31a7.788,7.788,0,0,1,8.795,5.562c-5.214,2.525-80.493,40.96-104.886,23.854-4.61-3.3,3.478-43.577,3.848-45.607C9.382,381.025,30.259,386.359,30.259,386.359Z" transform="translate(0.002 -290.676)" fill="#f8cdba" class="mKCUldXu_84"></path><path d="M158.82,415.446c1.469-.348,2.754-.691,3.81-1.018,3.325-1.089,5.791-3.94,7.266-4.31a7.788,7.788,0,0,1,8.795,5.562" transform="translate(-72.382 -304.11)" fill="none" stroke="#1f161e" stroke-linecap="round" stroke-miterlimit="10" stroke-width="1" class="mKCUldXu_85"></path></g></g><style data-made-with="vivus-instant">.mKCUldXu_0{stroke-dasharray:1322 1324;stroke-dashoffset:1323;animation:mKCUldXu_draw 1000ms ease-in-out 0ms forwards;}.mKCUldXu_1{stroke-dasharray:658 660;stroke-dashoffset:659;animation:mKCUldXu_draw 1000ms ease-in-out 0ms forwards;}.mKCUldXu_2{stroke-dasharray:133 135;stroke-dashoffset:134;animation:mKCUldXu_draw 1000ms ease-in-out 0ms forwards;}.mKCUldXu_3{stroke-dasharray:133 135;stroke-dashoffset:134;animation:mKCUldXu_draw 1000ms ease-in-out 0ms forwards;}.mKCUldXu_4{stroke-dasharray:133 135;stroke-dashoffset:134;animation:mKCUldXu_draw 1000ms ease-in-out 0ms forwards;}.mKCUldXu_5{stroke-dasharray:133 135;stroke-dashoffset:134;animation:mKCUldXu_draw 1000ms ease-in-out 0ms forwards;}.mKCUldXu_6{stroke-dasharray:213 215;stroke-dashoffset:214;animation:mKCUldXu_draw 1000ms ease-in-out 0ms forwards;}.mKCUldXu_7{stroke-dasharray:206 208;stroke-dashoffset:207;animation:mKCUldXu_draw 1000ms ease-in-out 0ms forwards;}.mKCUldXu_8{stroke-dasharray:955 957;stroke-dashoffset:956;animation:mKCUldXu_draw 1000ms ease-in-out 0ms forwards;}.mKCUldXu_9{stroke-dasharray:288 290;stroke-dashoffset:289;animation:mKCUldXu_draw 1000ms ease-in-out 0ms forwards;}.mKCUldXu_10{stroke-dasharray:347 349;stroke-dashoffset:348;animation:mKCUldXu_draw 1000ms ease-in-out 0ms forwards;}.mKCUldXu_11{stroke-dasharray:133 135;stroke-dashoffset:134;animation:mKCUldXu_draw 1000ms ease-in-out 0ms forwards;}.mKCUldXu_12{stroke-dasharray:133 135;stroke-dashoffset:134;animation:mKCUldXu_draw 1000ms ease-in-out 0ms forwards;}.mKCUldXu_13{stroke-dasharray:133 135;stroke-dashoffset:134;animation:mKCUldXu_draw 1000ms ease-in-out 0ms forwards;}.mKCUldXu_14{stroke-dasharray:133 135;stroke-dashoffset:134;animation:mKCUldXu_draw 1000ms ease-in-out 0ms forwards;}.mKCUldXu_15{stroke-dasharray:142 144;stroke-dashoffset:143;animation:mKCUldXu_draw 1000ms ease-in-out 0ms forwards;}.mKCUldXu_16{stroke-dasharray:16 18;stroke-dashoffset:17;animation:mKCUldXu_draw 1000ms ease-in-out 0ms forwards;}.mKCUldXu_17{stroke-dasharray:16 18;stroke-dashoffset:17;animation:mKCUldXu_draw 1000ms ease-in-out 0ms forwards;}.mKCUldXu_18{stroke-dasharray:16 18;stroke-dashoffset:17;animation:mKCUldXu_draw 1000ms ease-in-out 0ms forwards;}.mKCUldXu_19{stroke-dasharray:27 29;stroke-dashoffset:28;animation:mKCUldXu_draw 1000ms ease-in-out 0ms forwards;}.mKCUldXu_20{stroke-dasharray:160 162;stroke-dashoffset:161;animation:mKCUldXu_draw 1000ms ease-in-out 0ms forwards;}.mKCUldXu_21{stroke-dasharray:16 18;stroke-dashoffset:17;animation:mKCUldXu_draw 1000ms ease-in-out 0ms forwards;}.mKCUldXu_22{stroke-dasharray:16 18;stroke-dashoffset:17;animation:mKCUldXu_draw 1000ms ease-in-out 0ms forwards;}.mKCUldXu_23{stroke-dasharray:16 18;stroke-dashoffset:17;animation:mKCUldXu_draw 1000ms ease-in-out 0ms forwards;}.mKCUldXu_24{stroke-dasharray:27 29;stroke-dashoffset:28;animation:mKCUldXu_draw 1000ms ease-in-out 0ms forwards;}.mKCUldXu_25{stroke-dasharray:160 162;stroke-dashoffset:161;animation:mKCUldXu_draw 1000ms ease-in-out 0ms forwards;}.mKCUldXu_26{stroke-dasharray:16 18;stroke-dashoffset:17;animation:mKCUldXu_draw 1000ms ease-in-out 0ms forwards;}.mKCUldXu_27{stroke-dasharray:16 18;stroke-dashoffset:17;animation:mKCUldXu_draw 1000ms ease-in-out 0ms forwards;}.mKCUldXu_28{stroke-dasharray:16 18;stroke-dashoffset:17;animation:mKCUldXu_draw 1000ms ease-in-out 0ms forwards;}.mKCUldXu_29{stroke-dasharray:16 18;stroke-dashoffset:17;animation:mKCUldXu_draw 1000ms ease-in-out 0ms forwards;}.mKCUldXu_30{stroke-dasharray:16 18;stroke-dashoffset:17;animation:mKCUldXu_draw 1000ms ease-in-out 0ms forwards;}.mKCUldXu_31{stroke-dasharray:24 26;stroke-dashoffset:25;animation:mKCUldXu_draw 1000ms ease-in-out 0ms forwards;}.mKCUldXu_32{stroke-dasharray:24 26;stroke-dashoffset:25;animation:mKCUldXu_draw 1000ms ease-in-out 0ms forwards;}.mKCUldXu_33{stroke-dasharray:24 26;stroke-dashoffset:25;animation:mKCUldXu_draw 1000ms ease-in-out 0ms forwards;}.mKCUldXu_34{stroke-dasharray:72 74;stroke-dashoffset:73;animation:mKCUldXu_draw 1000ms ease-in-out 0ms forwards;}.mKCUldXu_35{stroke-dasharray:174 176;stroke-dashoffset:175;animation:mKCUldXu_draw 1000ms ease-in-out 0ms forwards;}.mKCUldXu_36{stroke-dasharray:176 178;stroke-dashoffset:177;animation:mKCUldXu_draw 1000ms ease-in-out 0ms forwards;}.mKCUldXu_37{stroke-dasharray:73 75;stroke-dashoffset:74;animation:mKCUldXu_draw 1000ms ease-in-out 0ms forwards;}.mKCUldXu_38{stroke-dasharray:15 17;stroke-dashoffset:16;animation:mKCUldXu_draw 1000ms ease-in-out 0ms forwards;}.mKCUldXu_39{stroke-dasharray:73 75;stroke-dashoffset:74;animation:mKCUldXu_draw 1000ms ease-in-out 0ms forwards;}.mKCUldXu_40{stroke-dasharray:148 150;stroke-dashoffset:149;animation:mKCUldXu_draw 1000ms ease-in-out 0ms forwards;}.mKCUldXu_41{stroke-dasharray:19 21;stroke-dashoffset:20;animation:mKCUldXu_draw 1000ms ease-in-out 0ms forwards;}.mKCUldXu_42{stroke-dasharray:401 403;stroke-dashoffset:402;animation:mKCUldXu_draw 1000ms ease-in-out 0ms forwards;}.mKCUldXu_43{stroke-dasharray:392 394;stroke-dashoffset:393;animation:mKCUldXu_draw 1000ms ease-in-out 0ms forwards;}.mKCUldXu_44{stroke-dasharray:305 307;stroke-dashoffset:306;animation:mKCUldXu_draw 1000ms ease-in-out 0ms forwards;}.mKCUldXu_45{stroke-dasharray:47 49;stroke-dashoffset:48;animation:mKCUldXu_draw 1000ms ease-in-out 0ms forwards;}.mKCUldXu_46{stroke-dasharray:65 67;stroke-dashoffset:66;animation:mKCUldXu_draw 1000ms ease-in-out 0ms forwards;}.mKCUldXu_47{stroke-dasharray:28 30;stroke-dashoffset:29;animation:mKCUldXu_draw 1000ms ease-in-out 0ms forwards;}.mKCUldXu_48{stroke-dasharray:86 88;stroke-dashoffset:87;animation:mKCUldXu_draw 1000ms ease-in-out 0ms forwards;}.mKCUldXu_49{stroke-dasharray:92 94;stroke-dashoffset:93;animation:mKCUldXu_draw 1000ms ease-in-out 0ms forwards;}.mKCUldXu_50{stroke-dasharray:12 14;stroke-dashoffset:13;animation:mKCUldXu_draw 1000ms ease-in-out 0ms forwards;}.mKCUldXu_51{stroke-dasharray:12 14;stroke-dashoffset:13;animation:mKCUldXu_draw 1000ms ease-in-out 0ms forwards;}.mKCUldXu_52{stroke-dasharray:6 8;stroke-dashoffset:7;animation:mKCUldXu_draw 1000ms ease-in-out 0ms forwards;}.mKCUldXu_53{stroke-dasharray:4 6;stroke-dashoffset:5;animation:mKCUldXu_draw 1000ms ease-in-out 0ms forwards;}.mKCUldXu_54{stroke-dasharray:20 22;stroke-dashoffset:21;animation:mKCUldXu_draw 1000ms ease-in-out 0ms forwards;}.mKCUldXu_55{stroke-dasharray:79 81;stroke-dashoffset:80;animation:mKCUldXu_draw 1000ms ease-in-out 0ms forwards;}.mKCUldXu_56{stroke-dasharray:27 29;stroke-dashoffset:28;animation:mKCUldXu_draw 1000ms ease-in-out 0ms forwards;}.mKCUldXu_57{stroke-dasharray:54 56;stroke-dashoffset:55;animation:mKCUldXu_draw 1000ms ease-in-out 0ms forwards;}.mKCUldXu_58{stroke-dasharray:33 35;stroke-dashoffset:34;animation:mKCUldXu_draw 1000ms ease-in-out 0ms forwards;}.mKCUldXu_59{stroke-dasharray:44 46;stroke-dashoffset:45;animation:mKCUldXu_draw 1000ms ease-in-out 0ms forwards;}.mKCUldXu_60{stroke-dasharray:47 49;stroke-dashoffset:48;animation:mKCUldXu_draw 1000ms ease-in-out 0ms forwards;}.mKCUldXu_61{stroke-dasharray:318 320;stroke-dashoffset:319;animation:mKCUldXu_draw 1000ms ease-in-out 0ms forwards;}.mKCUldXu_62{stroke-dasharray:133 135;stroke-dashoffset:134;animation:mKCUldXu_draw 1000ms ease-in-out 0ms forwards;}.mKCUldXu_63{stroke-dasharray:483 485;stroke-dashoffset:484;animation:mKCUldXu_draw 1000ms ease-in-out 0ms forwards;}.mKCUldXu_64{stroke-dasharray:118 120;stroke-dashoffset:119;animation:mKCUldXu_draw 1000ms ease-in-out 0ms forwards;}.mKCUldXu_65{stroke-dasharray:335 337;stroke-dashoffset:336;animation:mKCUldXu_draw 1000ms ease-in-out 0ms forwards;}.mKCUldXu_66{stroke-dasharray:61 63;stroke-dashoffset:62;animation:mKCUldXu_draw 1000ms ease-in-out 0ms forwards;}.mKCUldXu_67{stroke-dasharray:29 31;stroke-dashoffset:30;animation:mKCUldXu_draw 1000ms ease-in-out 0ms forwards;}.mKCUldXu_68{stroke-dasharray:110 112;stroke-dashoffset:111;animation:mKCUldXu_draw 1000ms ease-in-out 0ms forwards;}.mKCUldXu_69{stroke-dasharray:83 85;stroke-dashoffset:84;animation:mKCUldXu_draw 1000ms ease-in-out 0ms forwards;}.mKCUldXu_70{stroke-dasharray:37 39;stroke-dashoffset:38;animation:mKCUldXu_draw 1000ms ease-in-out 0ms forwards;}.mKCUldXu_71{stroke-dasharray:8 10;stroke-dashoffset:9;animation:mKCUldXu_draw 1000ms ease-in-out 0ms forwards;}.mKCUldXu_72{stroke-dasharray:6 8;stroke-dashoffset:7;animation:mKCUldXu_draw 1000ms ease-in-out 0ms forwards;}.mKCUldXu_73{stroke-dasharray:4 6;stroke-dashoffset:5;animation:mKCUldXu_draw 1000ms ease-in-out 0ms forwards;}.mKCUldXu_74{stroke-dasharray:11 13;stroke-dashoffset:12;animation:mKCUldXu_draw 1000ms ease-in-out 0ms forwards;}.mKCUldXu_75{stroke-dasharray:11 13;stroke-dashoffset:12;animation:mKCUldXu_draw 1000ms ease-in-out 0ms forwards;}.mKCUldXu_76{stroke-dasharray:102 104;stroke-dashoffset:103;animation:mKCUldXu_draw 1000ms ease-in-out 0ms forwards;}.mKCUldXu_77{stroke-dasharray:13 15;stroke-dashoffset:14;animation:mKCUldXu_draw 1000ms ease-in-out 0ms forwards;}.mKCUldXu_78{stroke-dasharray:29 31;stroke-dashoffset:30;animation:mKCUldXu_draw 1000ms ease-in-out 0ms forwards;}.mKCUldXu_79{stroke-dasharray:102 104;stroke-dashoffset:103;animation:mKCUldXu_draw 1000ms ease-in-out 0ms forwards;}.mKCUldXu_80{stroke-dasharray:36 38;stroke-dashoffset:37;animation:mKCUldXu_draw 1000ms ease-in-out 0ms forwards;}.mKCUldXu_81{stroke-dasharray:36 38;stroke-dashoffset:37;animation:mKCUldXu_draw 1000ms ease-in-out 0ms forwards;}.mKCUldXu_82{stroke-dasharray:172 174;stroke-dashoffset:173;animation:mKCUldXu_draw 1000ms ease-in-out 0ms forwards;}.mKCUldXu_83{stroke-dasharray:105 107;stroke-dashoffset:106;animation:mKCUldXu_draw 1000ms ease-in-out 0ms forwards;}.mKCUldXu_84{stroke-dasharray:291 293;stroke-dashoffset:292;animation:mKCUldXu_draw 1000ms ease-in-out 0ms forwards;}.mKCUldXu_85{stroke-dasharray:24 26;stroke-dashoffset:25;animation:mKCUldXu_draw 1000ms ease-in-out 0ms forwards;}@keyframes mKCUldXu_draw{100%{stroke-dashoffset:0;}}@keyframes mKCUldXu_fade{0%{stroke-opacity:1;}92.3076923076923%{stroke-opacity:1;}100%{stroke-opacity:0;}}</style></svg>