<svg width="238" height="42" viewBox="0 0 238 42" fill="none" xmlns="http://www.w3.org/2000/svg">
<path d="M107.664 11.4083C105.173 11.3314 102.748 12.226 100.895 13.906L98.2489 12.0744H98.1081C97.3802 12.0744 96.6822 12.3661 96.1675 12.8852C95.6528 13.4043 95.3637 14.1084 95.3637 14.8426V33.9306H101.472V18.652C102.059 18.0304 102.763 17.5333 103.543 17.1901C104.322 16.8469 105.162 16.6646 106.013 16.6538C108.489 16.6538 109.851 17.9442 109.851 20.9838V33.9315H115.96V20.5261C115.959 14.5304 113.36 11.4083 107.664 11.4083Z" fill="#183054"/>
<path d="M70.5361 23.1488C70.5361 16.0293 74.8702 11.4092 81.9277 11.4092C88.9034 11.4092 93.1136 15.7392 93.1136 22.8579C93.1136 29.9766 88.7794 34.5567 81.7633 34.5567C74.705 34.5559 70.5361 30.2258 70.5361 23.1488ZM86.9636 22.9787C86.9636 18.8954 85.0238 16.6503 81.8459 16.6503C78.6267 16.6503 76.6869 18.8988 76.6869 22.9787C76.6869 27.0587 78.6267 29.307 81.8459 29.307C85.0238 29.3079 86.9636 27.0621 86.9636 22.9821V22.9787Z" fill="#183054"/>
<path d="M162.105 23.2203C162.105 16.1467 166.329 11.5972 173.177 11.5972C179.984 11.5972 184.126 15.9817 184.126 22.9719C184.126 30.0455 179.861 34.595 173.013 34.595C166.206 34.595 162.105 30.2522 162.105 23.2203ZM179.001 23.0961C179.001 18.5457 176.746 15.9817 173.097 15.9817C169.488 15.9817 167.193 18.5874 167.193 23.0961C167.193 27.6456 169.49 30.2105 173.097 30.2105C176.745 30.2113 179.001 27.6048 179.001 23.0969V23.0961Z" fill="#00BA96"/>
<path d="M186.052 4.89621C186.082 4.02291 186.448 3.19576 187.071 2.58892C187.695 1.98209 188.527 1.64294 189.393 1.64294C190.26 1.64294 191.092 1.98209 191.716 2.58892C192.339 3.19576 192.705 4.02291 192.735 4.89621C192.735 6.96426 191.341 8.12294 189.373 8.12294C188.937 8.16328 188.498 8.10849 188.085 7.96234C187.672 7.81619 187.296 7.58207 186.98 7.27592C186.665 6.96978 186.419 6.59878 186.259 6.18814C186.099 5.77751 186.028 5.33687 186.052 4.89621V4.89621ZM186.831 12.259H191.916V33.9748H186.831V12.259Z" fill="#00BA96"/>
<path d="M234.275 29.2594V33.478C232.345 34.1887 230.3 34.5256 228.247 34.4707C222.875 34.4707 220.701 31.6584 220.701 26.0735V16.7669H217.421V12.2582H220.824L222.174 6.79834H225.741V12.2582H233.862V16.7669H225.741V25.5359C225.741 28.8451 226.849 30.1296 229.883 30.1296C231.388 30.1137 232.876 29.8187 234.275 29.2594V29.2594Z" fill="#00BA96"/>
<path d="M122.26 33.6873C122.26 30.0889 124.662 28.1501 128.092 28.1501C131.522 28.1501 133.787 30.0889 133.787 33.6873C133.787 37.2169 131.523 39.1548 128.092 39.1548C124.661 39.1548 122.26 37.2169 122.26 33.6873Z" fill="#00BA96"/>
<path d="M151.773 11.5972C150.483 11.5634 149.2 11.7872 147.996 12.2557C146.793 12.7242 145.693 13.4282 144.76 14.3271L142.833 12.2582H142.737C142.018 12.2718 141.334 12.5692 140.83 13.0866C140.327 13.6039 140.045 14.2998 140.045 15.0247V41.837H145.13V34.1433C146.6 34.4522 148.098 34.6048 149.599 34.5984C157.106 34.5984 160.631 29.6763 160.631 22.7269C160.63 15.8167 157.35 11.5972 151.773 11.5972ZM149.476 30.2113C148.005 30.2202 146.54 30.011 145.13 29.5904V18.5466C145.783 17.7571 146.597 17.1193 147.517 16.6766C148.437 16.2339 149.441 15.9969 150.461 15.9817C153.741 15.9817 155.545 18.4224 155.545 22.9302C155.545 27.2739 153.659 30.2113 149.476 30.2113V30.2113Z" fill="#00BA96"/>
<path d="M207.58 11.5972C204.997 11.5409 202.495 12.5057 200.608 14.2854L198.78 12.2582H198.679C197.951 12.2582 197.253 12.5498 196.738 13.069C196.223 13.5881 195.934 14.2922 195.934 15.0264V15.0264V33.974H201.019V18.5049C201.681 17.7284 202.498 17.1021 203.417 16.6672C204.336 16.2323 205.335 15.9987 206.35 15.9817C209.218 15.9817 210.779 17.5538 210.779 21.028V33.9748H215.864V20.6188C215.864 14.7413 213.238 11.5972 207.58 11.5972Z" fill="#00BA96"/>
<path d="M12.742 11.4084C10.4262 11.4038 8.12048 11.7157 5.88774 12.3356V12.3356C5.59274 12.4153 5.33202 12.5908 5.14587 12.835C4.95972 13.0792 4.85853 13.3785 4.85798 13.6865V13.6865V17.9018C6.98489 17.0503 9.25619 16.626 11.5443 16.6529C15.052 16.6529 16.4554 17.7767 16.4554 20.442V21.6908C14.7575 21.1713 12.9874 20.9323 11.2137 20.983C6.13739 20.983 3 23.6057 3 27.894C3 32.0157 5.68281 34.5967 10.1823 34.5967C12.6985 34.6997 15.165 33.8702 17.1166 32.2649L17.4464 33.9298H22.5649V20.9005C22.5649 14.2812 19.9234 11.4084 12.742 11.4084ZM16.4529 28.3526C15.8839 28.9223 15.2071 29.3707 14.4628 29.6712C13.7185 29.9717 12.9219 30.1181 12.1204 30.1016C10.3493 30.1016 9.06648 29.3938 9.06648 27.6031C9.06648 25.8124 10.3872 24.9804 12.6576 24.9804C13.9438 24.9907 15.2219 25.1869 16.4529 25.5631V28.3526Z" fill="#183054"/>
<path d="M30.7188 22.9821C30.7188 18.9838 32.8652 16.6538 36.9101 16.6538C38.5428 16.6178 40.1633 16.9445 41.6567 17.6108V13.3454C41.6551 13.0442 41.5572 12.7517 41.3776 12.5111C41.198 12.2705 40.9463 12.0946 40.6598 12.0098V12.0098C39.2379 11.607 37.7672 11.4066 36.2902 11.4143C28.9022 11.4143 24.5671 16.202 24.5671 23.1131C24.5671 30.1075 28.4467 34.5618 35.7935 34.5618C37.8443 34.5993 39.8813 34.2171 41.7815 33.4381V28.1509C40.1738 28.9358 38.4078 29.3347 36.6217 29.3164C32.7413 29.3079 30.7188 26.937 30.7188 22.9821Z" fill="#183054"/>
<path d="M48.8204 22.9821C48.8204 18.9838 50.9669 16.6538 55.0118 16.6538C56.6444 16.6178 58.2649 16.9445 59.7583 17.6108V13.3454C59.7567 13.0442 59.6588 12.7517 59.4792 12.5111C59.2996 12.2705 59.0479 12.0946 58.7614 12.0098V12.0098C57.3395 11.607 55.8688 11.4066 54.3919 11.4143C47.0038 11.4143 42.6688 16.202 42.6688 23.1131C42.6688 30.1075 46.5484 34.5618 53.8951 34.5618C55.9459 34.5993 57.983 34.2171 59.8832 33.4381V28.1509C58.2757 28.9357 56.5099 29.3346 54.7242 29.3164C50.8429 29.3079 48.8204 26.937 48.8204 22.9821Z" fill="#183054"/>
<path d="M65.2294 1C62.959 1 61.3498 2.29052 61.3498 4.66397C61.3498 7.03742 62.959 8.28624 65.2294 8.28624C67.4998 8.28624 69.1503 7.03657 69.1503 4.66397C69.1503 2.29137 67.499 1 65.2294 1ZM62.1738 33.9314H68.2825V12.0744H62.1738V33.9314Z" fill="#183054"/>
</svg>
